<svg id="Capa_1" enable-background="new 0 0 512 512" height="512" viewBox="0 0 512 512" width="512"
    xmlns="http://www.w3.org/2000/svg">
    <g fill='#60b1f4'>
        <path d="m505.183 199.429-85.683-55.773v-128.656c0-8.284-6.716-15-15-15h-297c-8.284 0-15 6.716-15 15v128.813l-85.667 55.605c-4.242 2.754-6.833 7.525-6.833 12.582v285 .008c.005 8.244 6.747 14.992 15 14.992h482c8.328 0 14.989-6.806 14.999-14.981 0-.006.001-.013.001-.019v-285c0-4.93-2.492-9.763-6.817-12.571zm-85.683-19.978 50.004 32.549-50.004 32.549zm-297-149.451h267v234.078l-69.012 44.922h-128.487l-69.501-45.11zm-30 149.579v64.84l-49.949-32.419zm-62.5 60.039 133.872 86.89-133.872 134.213zm21.148 242.382 142.636-143h124.917l142.223 143zm430.852-21.353-133.413-134.142 133.413-86.843z"/>
        <path d="m175.854 110h53.276c8.284 0 15-6.716 15-15s-6.716-15-15-15h-53.276c-8.284 0-15 6.716-15 15s6.716 15 15 15z"/>
        <path d="m175.854 179h160.292c8.284 0 15-6.716 15-15s-6.716-15-15-15h-160.292c-8.284 0-15 6.716-15 15s6.716 15 15 15z"/>
        <path d="m351.146 233c0-8.284-6.716-15-15-15h-160.292c-8.284 0-15 6.716-15 15s6.716 15 15 15h160.292c8.284 0 15-6.716 15-15z"/>
    </g>
</svg>