<?xml version="1.0" encoding="utf-8"?>
<!-- Generator: Adobe Illustrator 24.1.1, SVG Export Plug-In . SVG Version: 6.00 Build 0)  -->
<svg version="1.1" id="Layer_1" xmlns="http://www.w3.org/2000/svg" xmlns:xlink="http://www.w3.org/1999/xlink" x="0px" y="0px"
	 viewBox="0 0 552.8 205.3" style="enable-background:new 0 0 552.8 205.3;" xml:space="preserve">
<style type="text/css">
	.st0{fill:#FFFFFF;}
	.st1{fill:none;}
	.st2{clip-path:url(#SVGID_2_);}
	.st3{fill:none;stroke:#FFFFFF;stroke-width:4;stroke-miterlimit:10;}
	.st4{fill:#FFFFFF;stroke:#FFFFFF;stroke-miterlimit:10;}
</style>
<path class="st0" d="M77.6,161.6c-2.3-3.9-6.1-7.2-11.4-9.9c-5.3-2.7-13.9-5.3-26-7.9c-4.9-1-8-2.1-9.3-3.3c-1.2-0.9-2-2.3-2-3.8
	c-0.1-2,0.8-3.8,2.4-5c1.6-1.4,4-2.1,7.2-2.1c3.9-0.1,7,0.8,9.2,2.7c2.3,1.9,3.7,4.8,4.4,8.8l26-1.5c-1.1-9.3-4.6-16-10.6-20.3
	s-14.7-6.4-26.1-6.4c-9.3,0-16.7,1.2-22,3.5c-4.9,1.9-9,5.3-12,9.6c-2.6,3.8-4,8.4-4,13c-0.2,6.7,2.7,13,7.8,17.3
	c5.1,4.6,13.8,8.2,25.9,10.9c7.5,1.6,12.2,3.4,14.2,5.2c1.9,1.5,3,3.8,3,6.2c0,2.5-1.2,4.8-3.2,6.4c-2.1,1.9-5.2,2.8-9.1,2.8
	c-5.3,0-9.4-1.9-12.2-5.5c-1.8-2.3-2.9-5.5-3.5-9.8L0,174.2c0.8,9,4.1,16.4,10,22.4c5.9,5.9,16.4,8.8,31.6,8.8
	c8.6,0,15.8-1.3,21.5-3.8c5.4-2.3,10-6.1,13.3-11c3.1-4.7,4.8-10.2,4.8-15.8C81.2,170.2,80,165.6,77.6,161.6z M81,71.8
	c-1.1-2-2.4-3.9-3.9-5.6c-1.3-1.7-2.7-3.3-4.4-4.7c-2.2-1.4-4.7-2.6-7.2-3.3c3.4-0.6,6.7-1.8,9.7-3.5c7.7-4.4,12.2-12.8,11.9-21.6
	c0.1-5.2-1.3-10.2-4.2-14.5c-2.6-3.9-6.5-6.8-10.9-8.2c-4.5-1.5-11.1-2.2-19.6-2.2H6.3v89.3H34V61.2h2.4c2.4,0,4.8,0.7,6.8,2.1
	c1.5,1.1,3.1,3.4,5,6.9L63,97.7h31.4L81,71.8z M57.5,40.4c-1.1,1.5-2.7,2.5-4.5,2.8c-2.4,0.6-4.8,1-7.3,1.2H34V26.3h12.2
	c5,0,8.5,0.8,10.3,2.3C59.8,31.7,60.2,36.8,57.5,40.4z M365,58.6c-0.5-1.2-1.1-2.4-1.8-3.5c-2.3-3.9-6.1-7.2-11.4-9.9
	c-5.3-2.7-13.9-5.3-26-7.9c-4.9-1-8-2.1-9.3-3.3c-1.2-0.9-2-2.3-2-3.8c-0.1-2,0.9-3.8,2.4-5c1.6-1.3,4-2,7.2-2
	c3.9,0,6.9,0.9,9.2,2.8c2.3,1.9,3.7,4.8,4.4,8.8l26-1.5C362.6,24,359,17.2,353,13c-6-4.3-14.7-6.4-26.1-6.4c-9.3,0-16.7,1.2-22,3.5
	c-4.9,1.9-9,5.3-12,9.6c-2.6,3.8-4,8.4-4,13c-0.2,6.7,2.7,13,7.8,17.3c5.1,4.6,13.8,8.2,25.9,10.9c7.4,1.6,12.1,3.4,14.1,5.2
	c1.9,1.5,3,3.8,3,6.2c0,2.5-1.2,4.9-3.2,6.4c-2.1,1.9-5.2,2.8-9.1,2.8c-5.3,0-9.3-1.8-12.2-5.4c-1.8-2.3-2.9-5.5-3.5-9.8L285.4,68
	c0.7,9,4.2,16.4,10.1,22.3s16.4,8.8,31.6,8.8c8.6,0,15.8-1.3,21.5-3.8c5.3-2.3,9.8-6,13.1-10.7C360.6,76.2,361.8,67.3,365,58.6z"/>
<path class="st0" d="M133,167.2l24.2,7.3c-1.3,6.1-4,11.9-7.7,17c-3.4,4.5-7.9,8-13,10.3c-5.2,2.3-11.8,3.5-19.8,3.5
	c-9.7,0-17.7-1.4-23.8-4.2c-6.2-2.8-11.5-7.8-16-14.9c-4.5-7.1-6.7-16.2-6.7-27.3c0-14.8,3.9-26.2,11.8-34.1s19-11.9,33.4-11.9
	c11.3,0,20.1,2.3,26.6,6.8c6.4,4.6,11.2,11.6,14.4,21l-24.4,5.4c-0.6-2.1-1.5-4.2-2.7-6c-1.5-2.1-3.4-3.7-5.7-4.9
	c-2.3-1.2-4.9-1.7-7.5-1.7c-6.3,0-11.1,2.5-14.4,7.6c-2.5,3.7-3.8,9.6-3.8,17.6c0,9.9,1.5,16.7,4.5,20.4s7.2,5.5,12.7,5.5
	c5.3,0,9.3-1.5,12-4.4C129.8,177.1,131.8,172.8,133,167.2L133,167.2z M189.5,114.4h27.6v31.3h30.2v-31.3h27.8v89.4h-27.8v-36.2
	h-30.2v36.2h-27.6C189.5,203.8,189.5,114.4,189.5,114.4z"/>
<path class="st0" d="M472.9,124.8c-6.6-6.6-15.6-10.5-27-11.6c-12.9,8-27.2,11.5-40.3,10.7c-0.4,0.4-0.8,0.7-1.2,1.1
	c-8.1,8.1-12.2,19.5-12.2,34.1c0,10.5,2.1,19.2,6.2,26.2c3.7,6.5,9.3,11.8,16.1,15.2c6.6,3.2,14.9,4.8,25,4.8
	c9.9,0,18.2-1.9,24.9-5.6c6.5-3.6,11.8-9,15.2-15.6c3.5-6.7,5.3-15.2,5.3-25.7C485,144,480.9,132.8,472.9,124.8z M452.4,178.8
	c-3.3,3.9-7.9,5.8-13.8,5.8c-5.8,0-10.4-2-13.7-5.9c-3.3-4-5-10.5-5-19.5c0-9.1,1.7-15.6,5.1-19.5c3.3-3.9,8.3-6.1,13.4-5.9
	c5.8,0,10.4,1.9,13.8,5.8c3.4,3.8,5.1,10,5.1,18.4C457.3,168,455.7,174.9,452.4,178.8z M351.9,124.8c-8.1-8-19.5-12-34.4-12
	c-14.5,0-25.9,4.1-34,12.2c-8.1,8.1-12.2,19.5-12.2,34.1c0,10.5,2.1,19.2,6.2,26.2c3.7,6.5,9.3,11.8,16.1,15.2
	c6.6,3.2,14.9,4.8,25,4.8c9.9,0,18.2-1.9,24.9-5.6c6.5-3.6,11.8-9,15.2-15.6c3.5-6.7,5.3-15.2,5.3-25.7
	C364,144,360,132.8,351.9,124.8z M331.4,178.8c-3.3,3.9-7.9,5.8-13.8,5.8c-5.8,0-10.4-2-13.7-5.9c-3.3-4-5-10.5-5-19.5
	c0-9.1,1.7-15.6,5.1-19.5c3.4-3.9,8.3-6.1,13.4-5.9c5.8,0,10.4,1.9,13.8,5.8c3.4,3.8,5.1,10,5.1,18.4
	C336.3,168,334.7,174.9,331.4,178.8z"/>
<path class="st0" d="M482.1,114.4h27.6v67.4h43.1v22H482v-89.4H482.1z"/>
<path class="st1" d="M366.7,68.4c0,5.6-1.6,11.2-4.8,15.9c-0.1,0.1-0.1,0.2-0.2,0.3c-1.1-8.4,0.1-17.3,3.3-25.9
	C366.2,61.7,366.8,65,366.7,68.4z"/>
<path class="st1" d="M451.7,109.2c-1.9,1.4-3.8,2.7-5.7,3.9c-2.4-0.2-4.9-0.4-7.5-0.4c-13.8,0-24.8,3.7-32.8,11.1
	c-14.2-0.9-27.1-7-35.5-18.1c-4.8-6.3-7.5-13.5-8.5-21.2c0.1-0.1,0.1-0.2,0.2-0.3c3.2-4.7,4.8-10.3,4.8-15.9
	c0.1-3.4-0.5-6.7-1.8-9.8c4.4-11.9,12.7-23.3,24.4-32.1c27.8-20.9,64.3-19.4,81.5,3.5C488,52.8,479.5,88.3,451.7,109.2z"/>
<g>
	<defs>
		
			<ellipse id="SVGID_1_" transform="matrix(0.7986 -0.6018 0.6018 0.7986 43.8317 266.7392)" cx="420.5" cy="67.9" rx="63" ry="51.8"/>
	</defs>
	<clipPath id="SVGID_2_">
		<use xlink:href="#SVGID_1_"  style="overflow:visible;"/>
	</clipPath>
	<g class="st2">
		<g id="Layer_2_1_">
			<g>
				<g id="Layer_1-2">
					<g>
						<g>
							<path class="st3" d="M299.3,56.5L442.9-51.7l99.4,131.9L398.7,188.4L299.3,56.5z"/>
						</g>
					</g>
					<path class="st4" d="M392.4,61.3l10-7l12.3,17.5c2.1,2.8,3.7,5.8,4.9,9.1c0.7,2.5,0.5,5.2-0.5,7.6c-1.3,3-3.4,5.5-6.2,7.3
						c-3.3,2.3-6.1,3.6-8.5,4c-2.3,0.4-4.7,0-6.9-1c-2.4-1.2-4.5-2.9-6.1-5.1l8.6-8c0.7,1.1,1.6,2.1,2.6,2.9
						c0.7,0.5,1.5,0.8,2.4,0.8c0.7,0,1.4-0.3,1.9-0.7c1-0.6,1.7-1.8,1.6-3c-0.3-1.7-1-3.4-2.1-4.7L392.4,61.3L392.4,61.3z
						 M422.4,72.4l9.1-7.2c1,1.2,2.3,2.1,3.7,2.6c2,0.6,4.1,0.2,5.8-1.1c1.2-0.8,2.2-1.9,2.6-3.3c0.6-1.8-0.4-3.8-2.2-4.4
						c-0.3-0.1-0.6-0.2-0.9-0.2c-1.2-0.1-3.3,0.4-6.4,1.7c-5.1,2.1-9.1,2.9-12.1,2.6c-2.9-0.3-5.6-1.8-7.2-4.3
						c-1.2-1.7-1.8-3.7-1.9-5.7c0-2.3,0.6-4.6,1.9-6.5c1.9-2.7,4.2-5,7-6.8c4.2-2.9,7.9-4.3,11.1-4.3s6.2,1.5,9,4.6l-9,7.1
						c-1.8-2.3-5.2-2.8-7.5-1l-0.3,0.3c-1,0.6-1.7,1.5-2.1,2.6c-0.3,0.8-0.1,1.7,0.4,2.4c0.4,0.5,1,0.9,1.7,0.9
						c0.8,0.1,2.2-0.3,4.2-1.2c5-2.1,8.8-3.3,11.4-3.7c2.2-0.4,4.5-0.2,6.6,0.7c1.9,0.8,3.5,2.2,4.6,3.9c1.4,2,2.2,4.4,2.3,6.9
						c0.1,2.6-0.6,5.1-2,7.3c-1.8,2.7-4.1,5-6.8,6.8c-5.5,3.8-10,5.4-13.6,4.8C427.9,77.3,424.7,75.3,422.4,72.4L422.4,72.4z"/>
				</g>
			</g>
		</g>
	</g>
	<use xlink:href="#SVGID_1_"  style="overflow:visible;fill:none;stroke:#FFFFFF;stroke-miterlimit:10;"/>
</g>
</svg>
